HIERARCHY
ROOT Hips
{
	OFFSET 47.210701 -14.479613 84.165001
	CHANNELS 6 Xposition Yposition Zposition Xrotation Yrotation Zrotation
	JOINT spine
	{
		OFFSET 0.000000 -0.359108 6.244789
		CHANNELS 3 Xrotation Yrotation Zrotation
		JOINT spine1
		{
			OFFSET 0.000000 -0.000002 9.069412
			CHANNELS 3 Xrotation Yrotation Zrotation
			JOINT spine2
			{
				OFFSET 0.000000 -0.000001 8.690140
				CHANNELS 3 Xrotation Yrotation Zrotation
				JOINT Neck
				{
					OFFSET 0.000000 -1.063724 22.311203
					CHANNELS 3 Xrotation Yrotation Zrotation
					JOINT Head
					{
						OFFSET 0.000000 -0.000001 6.740814
						CHANNELS 3 Xrotation Yrotation Zrotation
						End Site
						{
							OFFSET 0.000000 5.380967 16.316498
						}
					}
				}
				JOINT RightShoulder
				{
					OFFSET -3.659161 0.509512 9.384682
					CHANNELS 3 Xrotation Yrotation Zrotation
					JOINT RightArm
					{
						OFFSET 0.000000 -0.000002 12.308907
						CHANNELS 3 Xrotation Yrotation Zrotation
						JOINT RightArmRoll
						{
							OFFSET 0.000000 -0.000001 6.213745
							CHANNELS 3 Xrotation Yrotation Zrotation
							JOINT RightForeArm
							{
								OFFSET 0.000000 -0.000003 18.098495
								CHANNELS 3 Xrotation Yrotation Zrotation
								JOINT RightForeArmRoll
								{
									OFFSET 0.000000 -0.000002 6.972794
									CHANNELS 3 Xrotation Yrotation Zrotation
									JOINT RightHand
									{
										OFFSET 0.000000 -0.000002 13.992798
										CHANNELS 3 Xrotation Yrotation Zrotation
										End Site
										{
											OFFSET 0.000000 0.000000 0.100006
										}
									}
								}
							}
						}
					}
				}
				JOINT LeftShoulder
				{
					OFFSET 3.659161 0.509512 9.384682
					CHANNELS 3 Xrotation Yrotation Zrotation
					JOINT LeftArm
					{
						OFFSET 0.000000 -0.000002 12.308907
						CHANNELS 3 Xrotation Yrotation Zrotation
						JOINT LeftArmRoll
						{
							OFFSET 0.000000 -0.000001 6.213745
							CHANNELS 3 Xrotation Yrotation Zrotation
							JOINT LeftForeArm
							{
								OFFSET 0.000000 -0.000003 18.098495
								CHANNELS 3 Xrotation Yrotation Zrotation
								JOINT LeftForeArmRoll
								{
									OFFSET 0.000000 -0.000002 6.972794
									CHANNELS 3 Xrotation Yrotation Zrotation
									JOINT LeftHand
									{
										OFFSET 0.000000 -0.000002 13.992905
										CHANNELS 3 Xrotation Yrotation Zrotation
										End Site
										{
											OFFSET 0.000000 0.000000 0.100006
										}
									}
								}
							}
						}
					}
				}
			}
		}
	}
	JOINT RightUpLeg
	{
		OFFSET -5.535160 0.851454 -1.014999
		CHANNELS 3 Xrotation Yrotation Zrotation
		JOINT RightUpLegRoll
		{
			OFFSET 0.000000 -0.000003 16.407501
			CHANNELS 3 Xrotation Yrotation Zrotation
			JOINT RightLeg
			{
				OFFSET 0.000000 0.000003 -20.318100
				CHANNELS 3 Xrotation Yrotation Zrotation
				JOINT RightLegRoll
				{
					OFFSET 0.000000 -0.000003 20.384598
					CHANNELS 3 Xrotation Yrotation Zrotation
					JOINT RightFoot
					{
						OFFSET 0.000000 -0.000003 16.966805
						CHANNELS 3 Xrotation Yrotation Zrotation
						JOINT RightToeBase
						{
							OFFSET 0.000000 -0.000002 14.183395
							CHANNELS 3 Xrotation Yrotation Zrotation
							End Site
							{
								OFFSET 0.006012 0.791743 6.868896
							}
						}
					}
				}
			}
		}
	}
	JOINT LeftUpLeg
	{
		OFFSET 5.535160 0.851454 -1.014999
		CHANNELS 3 Xrotation Yrotation Zrotation
		JOINT LeftUpLegRoll
		{
			OFFSET 0.000000 -0.000003 16.407600
			CHANNELS 3 Xrotation Yrotation Zrotation
			JOINT LeftLeg
			{
				OFFSET 0.000000 -0.000003 20.318100
				CHANNELS 3 Xrotation Yrotation Zrotation
				JOINT LeftLegRoll
				{
					OFFSET 0.000000 -0.000004 20.573105
					CHANNELS 3 Xrotation Yrotation Zrotation
					JOINT LeftFoot
					{
						OFFSET 0.000000 -0.000003 16.778305
						CHANNELS 3 Xrotation Yrotation Zrotation
						JOINT LeftToeBase
						{
							OFFSET 0.000000 -0.000002 14.183395
							CHANNELS 3 Xrotation Yrotation Zrotation
							End Site
							{
								OFFSET -0.026943 0.791745 6.868896
							}
						}
					}
				}
			}
		}
	}
}
MOTION
Frames: 12
Frame Time: 0.041667
47.057701 -15.008112 84.214409 -4.020874 0.164849 -4.533092 -1.484915 0.256846 0.086188 1.032612 0.511972 0.176498 2.677718 0.514010 0.170348 19.976394 -3.665080 0.165982 2.180947 4.117746 -0.129151 0.102291 -67.540271 -0.868345 -53.335533 -127.745861 -81.281806 -0.000004 0.000002 -0.000010 95.261167 1.249000 -8.038391 0.000007 0.000004 -3.000001 -5.000019 -7.999934 0.000022 -15.909725 58.628855 18.775785 -41.962459 128.473126 73.164768 0.000001 -0.000001 0.000000 94.133496 -2.100801 8.852820 0.000008 -0.000012 3.000009 -5.000029 7.999944 -0.000013 -2.473936 -176.332412 1.137708 -179.999991 0.000005 -0.933996 168.295807 -0.465118 -1.092356 0.000002 -0.000001 0.085271 69.681365 5.742627 5.110788 25.456955 -7.355624 0.000005 3.941908 176.164075 -3.890646 -0.000005 -0.000004 -1.164970 -11.776890 1.046816 0.890709 0.000002 0.000002 -0.421973 75.382332 -6.744150 -2.078686 25.631569 7.354807 -0.270098 
47.062801 -15.018513 84.218208 -4.023936 0.164255 -4.538895 -1.483314 0.257214 0.087012 1.035791 0.512371 0.178149 2.680898 0.514388 0.171989 19.980192 -3.651734 0.168177 2.166431 4.109630 -0.126196 0.094424 -67.528168 -0.875813 -53.379161 -127.746271 -81.161608 -0.000003 0.000002 -0.000012 95.292853 1.244526 -8.026525 0.000007 0.000004 -3.000000 -5.000025 -7.999934 0.000023 -15.917230 58.637584 18.784888 -42.009003 128.427897 73.120174 -0.000001 0.000000 -0.000000 94.197154 -2.131227 8.874099 0.000004 -0.000010 3.000013 -5.000032 7.999942 -0.000013 -2.471044 -176.327412 1.144019 -179.999991 0.000005 -0.933996 168.300396 -0.471988 -1.092742 0.000001 -0.000001 0.085271 69.681153 5.743766 5.107801 25.456953 -7.355624 0.000005 3.948885 176.166097 -3.890165 -0.000005 -0.000004 -1.164980 -11.767392 1.046676 0.890706 0.000003 0.000002 -0.421923 75.375604 -6.744180 -2.078692 25.632570 7.354800 -0.270843 
47.065102 -15.010814 84.226601 -4.027218 0.163428 -4.545334 -1.481736 0.257587 0.087826 1.038952 0.512757 0.179777 2.684059 0.514748 0.173604 19.984765 -3.637045 0.170657 2.151138 4.100729 -0.122914 0.088013 -67.515464 -0.881579 -53.422799 -127.745465 -81.042421 -0.000004 0.000003 -0.000011 95.323807 1.239941 -8.014643 0.000007 0.000006 -2.999999 -5.000022 -7.999931 0.000022 -15.925290 58.647160 18.794679 -42.056125 128.381766 73.074555 -0.000003 -0.000000 -0.000003 94.257697 -2.160946 8.894328 0.000005 -0.000010 3.000010 -5.000034 7.999939 -0.000015 -2.467971 -176.322399 1.150881 -179.999991 0.000005 -0.933995 168.304986 -0.478845 -1.092114 0.000001 -0.000001 0.085271 69.681057 5.744949 5.104721 25.456952 -7.355623 0.000004 3.956566 176.169129 -3.889511 -0.000005 -0.000005 -1.165010 -11.757389 1.046548 0.890707 0.000004 0.000002 -0.421877 75.368644 -6.744162 -2.078707 25.633678 7.354805 -0.271769 
47.060902 -14.992611 84.223289 -4.030647 0.162437 -4.552223 -1.480156 0.257963 0.088632 1.042113 0.513133 0.181387 2.687209 0.515096 0.175204 19.989915 -3.621402 0.173341 2.135285 4.091267 -0.119407 0.082627 -67.502377 -0.886158 -53.464641 -127.744755 -80.921820 -0.000005 0.000001 -0.000012 95.354242 1.235308 -8.003759 0.000005 0.000005 -2.999997 -5.000024 -7.999936 0.000021 -15.933762 58.657391 18.804969 -42.103854 128.334760 73.028444 0.000001 -0.000000 0.000001 94.316142 -2.190151 8.913542 0.000008 -0.000008 3.000008 -5.000032 7.999942 -0.000014 -2.464771 -176.317399 1.158131 -179.999991 0.000005 -0.933996 168.309576 -0.485715 -1.092498 0.000001 -0.000001 0.085271 69.680989 5.746197 5.101347 25.456953 -7.355624 0.000005 3.964760 176.172148 -3.888784 -0.000005 -0.000004 -1.165040 -11.746985 1.046420 0.890705 0.000003 0.000001 -0.421835 75.361357 -6.744167 -2.078744 25.634993 7.354805 -0.272816 
47.062401 -14.988211 84.217102 -4.034168 0.161354 -4.559370 -1.478576 0.258340 0.089432 1.045253 0.513505 0.182988 2.690360 0.515438 0.176794 19.995357 -3.605237 0.176134 2.119127 4.081487 -0.115774 0.077829 -67.489181 -0.890052 -53.505779 -127.743648 -80.800776 -0.000004 0.000001 -0.000011 95.384343 1.230670 -7.991874 0.000007 0.000006 -2.999999 -5.000022 -7.999932 0.000020 -15.942476 58.668005 18.815552 -42.151409 128.287673 72.981425 0.000000 0.000000 0.000000 94.373318 -2.218982 8.932728 0.000005 -0.000008 3.000009 -5.000031 7.999939 -0.000015 -2.461489 -176.311402 1.165556 -179.999991 0.000005 -0.933996 168.314166 -0.493549 -1.092085 0.000001 -0.000001 0.085271 69.680811 5.747511 5.097993 25.456952 -7.355623 0.000005 3.973245 176.175181 -3.888011 -0.000005 -0.000004 -1.165080 -11.736283 1.046304 0.890705 0.000003 0.000002 -0.421795 75.353953 -6.744160 -2.078686 25.636309 7.354807 -0.273932 
47.061699 -14.978808 84.217094 -4.037706 0.160249 -4.566578 -1.477004 0.258718 0.090232 1.048402 0.513874 0.184588 2.693500 0.515780 0.178381 20.000995 -3.588928 0.178963 2.102893 4.071615 -0.112114 0.073178 -67.475883 -0.893771 -53.547638 -127.741736 -80.680899 -0.000004 0.000003 -0.000011 95.414321 1.225996 -7.979967 0.000007 0.000002 -3.000003 -5.000021 -7.999934 0.000021 -15.951263 58.678702 18.826228 -42.199853 128.239807 72.935437 0.000000 0.000000 0.000000 94.430200 -2.247755 8.950956 0.000006 -0.000011 3.000010 -5.000033 7.999944 -0.000013 -2.458188 -176.305405 1.173041 -179.999991 0.000005 -0.933995 168.318756 -0.500420 -1.092466 0.000001 -0.000001 0.085270 69.680743 5.748761 5.094619 25.456953 -7.355623 0.000005 3.981806 176.179225 -3.887165 -0.000005 -0.000004 -1.165120 -11.725581 1.046188 0.890706 0.000003 0.000002 -0.421755 75.346556 -6.744148 -2.078728 25.637624 7.354808 -0.275060 
47.058800 -14.977011 84.226799 -4.041194 0.159191 -4.573662 -1.475424 0.259095 0.091033 1.051543 0.514248 0.186192 2.696650 0.516124 0.179974 20.006346 -3.572890 0.181717 2.086809 4.061913 -0.108526 0.068248 -67.462687 -0.897822 -53.588244 -127.740288 -80.559240 -0.000003 0.000003 -0.000012 95.444579 1.221355 -7.969074 0.000008 0.000001 -3.000001 -5.000025 -7.999934 0.000020 -15.959946 58.689213 18.836762 -42.247319 128.192597 72.888589 0.000001 0.000001 -0.000001 94.487690 -2.276645 8.970228 0.000004 -0.000007 3.000010 -5.000035 7.999940 -0.000013 -2.454936 -176.300392 1.180457 -179.999991 0.000005 -0.933997 168.323346 -0.508254 -1.092035 0.000001 -0.000001 0.085270 69.680668 5.750043 5.091253 25.456950 -7.355623 0.000005 3.990221 176.182257 -3.886398 -0.000005 -0.000004 -1.165150 -11.714979 1.046072 0.890706 0.000003 0.000001 -0.421714 75.339165 -6.744157 -2.078673 25.638930 7.354802 -0.276153 
47.057198 -14.970211 84.224998 -4.044585 0.158251 -4.580420 -1.473845 0.259470 0.091841 1.054703 0.514627 0.187807 2.699810 0.516476 0.181578 20.011408 -3.557517 0.184329 2.071122 4.052601 -0.105105 0.062593 -67.449682 -0.902712 -53.628945 -127.738936 -80.437266 -0.000002 0.000003 -0.000011 95.475123 1.216773 -7.958187 0.000005 0.000003 -3.000000 -5.000025 -7.999934 0.000020 -15.968315 58.699254 18.846934 -42.294912 128.145427 72.842772 0.000000 -0.000000 -0.000001 94.546818 -2.305851 8.989556 0.000007 -0.000011 3.000011 -5.000033 7.999943 -0.000018 -2.451767 -176.294368 1.187545 -179.999991 0.000005 -0.933995 168.327922 -0.515125 -1.092415 0.000002 -0.000001 0.085270 69.680490 5.751288 5.087986 25.456955 -7.355624 0.000004 3.998265 176.185290 -3.885684 -0.000005 -0.000005 -1.165190 -11.704677 1.045944 0.890707 0.000002 0.000002 -0.421671 75.332001 -6.744160 -2.078702 25.640245 7.354802 -0.277179 
47.050701 -14.960211 84.218910 -4.047796 0.157498 -4.586674 -1.472266 0.259842 0.092658 1.057873 0.515018 0.189441 2.702971 0.516844 0.183200 20.015699 -3.543226 0.186706 2.056064 4.043923 -0.101951 0.055788 -67.437190 -0.908945 -53.670902 -127.737160 -80.316188 -0.000003 0.000001 -0.000011 95.506317 1.212312 -7.946295 0.000005 0.000002 -3.000000 -5.000022 -7.999938 0.000019 -15.976280 58.708631 18.856580 -42.340776 128.099706 72.796470 -0.000001 0.000000 -0.000000 94.608427 -2.335467 9.010990 0.000008 -0.000009 3.000010 -5.000032 7.999942 -0.000019 -2.448755 -176.289368 1.194247 -179.999991 0.000005 -0.933996 168.332512 -0.522973 -1.092995 0.000001 -0.000001 0.085270 69.680395 5.752466 5.084905 25.456957 -7.355623 0.000005 4.005742 176.187311 -3.885123 -0.000005 -0.000004 -1.165210 -11.694775 1.045805 0.890703 0.000002 0.000002 -0.421624 75.325054 -6.744180 -2.078721 25.641370 7.354796 -0.278051 
47.052601 -14.957813 84.221001 -4.050764 0.157004 -4.592212 -1.470665 0.260210 0.093488 1.061063 0.515424 0.191100 2.706161 0.517228 0.184849 20.019114 -3.530411 0.188759 2.041865 4.036115 -0.099162 0.047395 -67.425196 -0.917021 -53.712266 -127.736313 -80.193347 -0.000003 0.000003 -0.000010 95.538296 1.207907 -7.935425 0.000007 0.000005 -3.000001 -5.000023 -7.999932 0.000021 -15.983561 58.716978 18.865428 -42.385193 128.055556 72.750319 0.000002 0.000000 -0.000003 94.673546 -2.365914 9.033560 0.000005 -0.000007 3.000012 -5.000036 7.999943 -0.000016 -2.445929 -176.285379 1.200389 -179.999991 0.000005 -0.933996 168.337102 -0.528855 -1.092157 0.000001 -0.000001 0.085271 69.680176 5.753570 5.082013 25.456953 -7.355624 0.000005 4.012426 176.189333 -3.884678 -0.000005 -0.000005 -1.165230 -11.685573 1.045664 0.890704 0.000003 0.000001 -0.421572 75.318531 -6.744162 -2.078710 25.642272 7.354805 -0.278727 
47.060005 -14.973613 84.227699 -4.053423 0.156836 -4.596866 -1.469055 0.260571 0.094334 1.064263 0.515849 0.192793 2.709371 0.517637 0.186532 20.021472 -3.519482 0.190419 2.028769 4.029411 -0.096831 0.036987 -67.413988 -0.927451 -53.755225 -127.735220 -80.071278 -0.000004 0.000002 -0.000012 95.571340 1.203704 -7.923562 0.000005 0.000005 -3.000000 -5.000025 -7.999933 0.000021 -15.990031 58.724013 18.873271 -42.428992 128.012211 72.705984 -0.000002 0.000002 0.000001 94.742941 -2.397187 9.057291 0.000002 -0.000010 3.000011 -5.000030 7.999943 -0.000015 -2.443372 -176.282374 1.205797 -179.999991 0.000005 -0.933996 168.341787 -0.534737 -1.092329 0.000001 -0.000001 0.085270 69.679930 5.754606 5.079312 25.456953 -7.355624 0.000005 4.018091 176.191355 -3.884364 -0.000005 -0.000005 -1.165230 -11.677271 1.045509 0.890706 0.000003 0.000001 -0.421514 75.312562 -6.744140 -2.078765 25.643080 7.354801 -0.279182 
47.055801 -14.965714 84.226303 -4.055713 0.157065 -4.600424 -1.467434 0.260926 0.095200 1.067504 0.516297 0.194525 2.712612 0.518074 0.188253 20.022285 -3.510844 0.191575 2.017003 4.024064 -0.095060 0.024128 -67.403695 -0.940733 -53.799078 -127.734769 -79.948710 -0.000005 0.000002 -0.000010 95.605689 1.199547 -7.912724 0.000006 0.000005 -3.000002 -5.000027 -7.999929 0.000023 -15.995524 58.729518 18.879918 -42.469594 127.971913 72.660795 0.000000 0.000001 -0.000000 94.817724 -2.429595 9.083224 0.000005 -0.000012 3.000008 -5.000033 7.999939 -0.000017 -2.441134 -176.279355 1.210264 -179.999991 0.000005 -0.933995 168.346377 -0.540620 -1.092500 0.000001 -0.000001 0.085270 69.679664 5.755533 5.076793 25.456953 -7.355625 0.000004 4.022538 176.192366 -3.884300 -0.000005 -0.000004 -1.165210 -11.669869 1.045331 0.890705 0.000002 0.000001 -0.421448 75.307159 -6.744140 -2.078687 25.643682 7.354800 -0.279356 
